<svg xmlns="http://www.w3.org/2000/svg" width="256" height="256" viewBox="0 0 100 100">
    <rect width="100" height="100" rx="20" fill="#492eff"></rect>
    <path fill="#fff"
          d="M11.11 30.91L19.31 30.91Q20.30 32.73 21.59 35.40Q22.88 38.06 24.29 41.17Q25.69 44.28 27.06 47.53Q28.44 50.77 29.65 53.63L29.65 53.63Q30.86 50.77 32.23 47.53Q33.61 44.28 35.01 41.17Q36.41 38.06 37.71 35.40Q39 32.73 39.99 30.91L39.99 30.91L47.80 30.91Q48.35 34.71 48.82 39.41Q49.28 44.12 49.64 49.20Q50 54.29 50.30 59.41Q50.60 64.52 50.83 69.03L50.83 69.03L42.46 69.03Q42.30 63.48 42.02 56.93Q41.75 50.39 41.20 43.73L41.20 43.73Q40.21 46.04 39 48.84Q37.79 51.65 36.61 54.45Q35.42 57.26 34.32 59.82Q33.22 62.38 32.45 64.19L32.45 64.19L26.46 64.19Q25.69 62.38 24.59 59.82Q23.49 57.26 22.31 54.45Q21.12 51.65 19.91 48.84Q18.70 46.04 17.71 43.73L17.71 43.73Q17.16 50.39 16.89 56.93Q16.61 63.48 16.45 69.03L16.45 69.03L8.09 69.03Q8.31 64.52 8.61 59.41Q8.91 54.29 9.27 49.20Q9.63 44.12 10.10 39.41Q10.56 34.71 11.11 30.91L11.11 30.91ZM67.11 37.95L67.11 62.05Q67.71 62.10 68.51 62.13Q69.31 62.16 70.41 62.16L70.41 62.16Q76.84 62.16 79.95 58.91Q83.06 55.66 83.06 49.95L83.06 49.95Q83.06 43.95 80.09 40.87Q77.11 37.79 70.68 37.79L70.68 37.79Q69.80 37.79 68.86 37.82Q67.93 37.84 67.11 37.95L67.11 37.95ZM91.91 49.95L91.91 49.95Q91.91 54.90 90.37 58.58Q88.83 62.27 86.00 64.69Q83.16 67.11 79.09 68.31Q75.03 69.53 69.97 69.53L69.97 69.53Q67.66 69.53 64.58 69.33Q61.49 69.14 58.52 68.53L58.52 68.53L58.52 31.41Q61.49 30.86 64.71 30.67Q67.93 30.48 70.24 30.48L70.24 30.48Q75.14 30.48 79.12 31.58Q83.11 32.68 85.97 35.04Q88.83 37.41 90.37 41.09Q91.91 44.78 91.91 49.95Z"></path>
</svg>